<?xml version="1.0" encoding="UTF-8" standalone="no"?>
<!DOCTYPE svg PUBLIC "-//W3C//DTD SVG 1.1//EN" "http://www.w3.org/Graphics/SVG/1.1/DTD/svg11.dtd">
<!-- Created with Vectornator (http://vectornator.io/) -->
<svg height="100%" stroke-miterlimit="10"
    style="fill-rule:nonzero;clip-rule:evenodd;stroke-linecap:round;stroke-linejoin:round;"
    version="1.1" viewBox="82.7903 120.225 1175.91 143.988" width="100%" xml:space="preserve"
    xmlns="http://www.w3.org/2000/svg" xmlns:vectornator="http://vectornator.io"
    xmlns:xlink="http://www.w3.org/1999/xlink">
<clipPath id="ArtboardFrame">
<rect height="143.988" width="1175.91" x="82.7903" y="120.225" fill="black"/>
</clipPath>
<g clip-path="url(#ArtboardFrame)" id="Layer" vectornator:layerName="Layer">
<g opacity="1" vectornator:layerName="Group 1">
<path d="M118.245 232.919L126.023 232.919C134.947 232.919 141.338 231.773 145.197 229.482C149.056 227.191 150.986 223.513 150.986 218.448C150.986 213.383 149.056 209.705 145.197 207.414C141.338 205.122 134.947 203.977 126.023 203.977L118.245 203.977L118.245 232.919ZM118.245 177.567L124.757 177.567C135.851 177.567 141.399 173.165 141.399 164.362C141.399 155.559 135.851 151.157 124.757 151.157L118.245 151.157L118.245 177.567ZM82.7903 124.023L135.61 124.023C148.152 124.023 157.679 127.038 164.191 133.068C170.703 139.098 173.959 147.78 173.959 159.116C173.959 165.99 172.723 171.688 170.25 176.21C167.778 180.732 164.01 184.561 158.945 187.697C164.01 188.661 168.321 190.139 171.878 192.128C175.436 194.118 178.33 196.56 180.561 199.454C182.792 202.349 184.39 205.605 185.355 209.222C186.319 212.84 186.802 216.699 186.802 220.799C186.802 227.191 185.686 232.859 183.455 237.803C181.224 242.747 178.089 246.908 174.049 250.284C170.009 253.661 165.095 256.193 159.307 257.882C153.518 259.57 147.006 260.414 139.771 260.414L82.7903 260.414L82.7903 124.023Z" fill-rule="nonzero" opacity="1" stroke="none" vectornator:layerName="Curve"/>
<path d="M255.804 184.983L262.497 184.983C269.491 184.983 274.858 183.536 278.596 180.642C282.334 177.748 284.204 173.587 284.204 168.16C284.204 162.734 282.334 158.573 278.596 155.679C274.858 152.785 269.491 151.338 262.497 151.338L255.804 151.338L255.804 184.983ZM333.767 260.414L289.63 260.414L255.804 207.956L255.804 260.414L220.35 260.414L220.35 124.023L275.521 124.023C283.118 124.023 289.751 125.139 295.419 127.37C301.087 129.601 305.76 132.646 309.438 136.505C313.116 140.364 315.889 144.826 317.759 149.891C319.628 154.956 320.562 160.382 320.562 166.171C320.562 176.542 318.06 184.953 313.056 191.405C308.051 197.857 300.665 202.228 290.897 204.519L333.767 260.414Z" fill-rule="nonzero" opacity="1" stroke="none" vectornator:layerName="Curve"/>
<path d="M395.172 124.023L395.172 198.188C395.172 202.168 395.323 206.238 395.624 210.398C395.926 214.559 396.83 218.327 398.338 221.704C399.845 225.08 402.227 227.824 405.483 229.934C408.739 232.045 413.321 233.1 419.23 233.1C425.139 233.1 429.692 232.045 432.888 229.934C436.083 227.824 438.465 225.08 440.033 221.704C441.6 218.327 442.535 214.559 442.837 210.398C443.138 206.238 443.289 202.168 443.289 198.188L443.289 124.023L478.562 124.023L478.562 203.072C478.562 224.297 473.708 239.793 464.001 249.561C454.293 259.329 439.369 264.213 419.23 264.213C399.091 264.213 384.138 259.329 374.37 249.561C364.602 239.793 359.718 224.297 359.718 203.072L359.718 124.023L395.172 124.023Z" fill-rule="nonzero" opacity="1" stroke="none" vectornator:layerName="Curve"/>
<path d="M571.261 154.051L571.261 260.414L535.806 260.414L535.806 154.051L506.683 154.051L506.683 124.023L600.384 124.023L600.384 154.051L571.261 154.051Z" fill-rule="nonzero" opacity="1" stroke="none" vectornator:layerName="Curve"/>
<path d="M696.339 209.765L680.42 164.362L664.502 209.765L696.339 209.765ZM705.745 236.718L655.096 236.718L646.956 260.414L609.15 260.414L661.065 124.023L699.776 124.023L751.691 260.414L713.885 260.414L705.745 236.718Z" fill-rule="nonzero" opacity="1" stroke="none" vectornator:layerName="Curve"/>
<path d="M815.085 124.023L815.085 230.387L857.595 230.387L857.595 260.414L779.631 260.414L779.631 124.023L815.085 124.023Z"  fill-rule="nonzero" opacity="1" stroke="none" vectornator:layerName="Curve"/>
<path d="M923.702 124.023L923.702 260.414L888.248 260.414L888.248 124.023L923.702 124.023Z" fill-rule="nonzero" opacity="1" stroke="none" vectornator:layerName="Curve"/>
<path d="M1039.55 158.935C1035.7 155.8 1031.84 153.478 1027.98 151.971C1024.12 150.463 1020.38 149.71 1016.76 149.71C1012.18 149.71 1008.44 150.795 1005.55 152.966C1002.65 155.136 1001.21 157.97 1001.21 161.468C1001.21 163.879 1001.93 165.869 1003.38 167.437C1004.82 169.005 1006.72 170.361 1009.07 171.507C1011.43 172.653 1014.08 173.647 1017.03 174.492C1019.99 175.336 1022.91 176.24 1025.81 177.205C1037.38 181.064 1045.86 186.219 1051.22 192.671C1056.59 199.123 1059.27 207.534 1059.27 217.905C1059.27 224.9 1058.1 231.231 1055.74 236.899C1053.39 242.566 1049.96 247.42 1045.43 251.46C1040.91 255.5 1035.36 258.635 1028.79 260.866C1022.22 263.097 1014.77 264.213 1006.45 264.213C989.207 264.213 973.229 259.088 958.516 248.837L973.711 220.257C979.017 224.96 984.263 228.457 989.448 230.748C994.634 233.04 999.759 234.185 1004.82 234.185C1010.61 234.185 1014.92 232.859 1017.76 230.206C1020.59 227.553 1022.01 224.538 1022.01 221.161C1022.01 219.111 1021.65 217.332 1020.92 215.825C1020.2 214.318 1018.99 212.931 1017.31 211.664C1015.62 210.398 1013.42 209.222 1010.7 208.137C1007.99 207.052 1004.7 205.846 1000.84 204.519C996.262 203.072 991.77 201.474 987.368 199.726C982.967 197.977 979.047 195.656 975.61 192.761C972.173 189.867 969.4 186.219 967.289 181.818C965.179 177.416 964.124 171.839 964.124 165.085C964.124 158.332 965.239 152.212 967.47 146.725C969.701 141.238 972.837 136.535 976.877 132.616C980.916 128.696 985.861 125.651 991.71 123.481C997.558 121.31 1004.1 120.225 1011.34 120.225C1018.09 120.225 1025.14 121.159 1032.5 123.029C1039.86 124.898 1046.91 127.641 1053.66 131.259L1039.55 158.935Z" fill-rule="nonzero" opacity="1" stroke="none" vectornator:layerName="Curve"/>
<path d="M1087.75 260.414L1110.91 124.023L1146 124.023L1173.32 196.741L1200.45 124.023L1235.54 124.023L1258.7 260.414L1223.42 260.414L1211.66 181.908L1179.47 260.414L1165.36 260.414L1134.79 181.908L1123.03 260.414L1087.75 260.414Z" fill-rule="nonzero" opacity="1" stroke="none" vectornator:layerName="Curve"/>
</g>
</g>
</svg>